# xmcd CD database file
#
# Track frame offsets:
#	231
#	10116
#	18478
#	27772
#	37393
#	47522
#	58495
#	73316
#	88024
#	98688
#	109600
#	119070
#	133075
#
# Disc length: 1910 seconds
#
# Revision: 0
# Processed by: cddbd v1.5.1PL0 Copyright (c) Steve Scherf et al.
# Submitted via: Feurio! 1.68 - http://www.feurio.com
#
DISCID=ba07730d
DTITLE=Buddy Knox - Greatest Hits
DYEAR=1986
DGENRE=Country
TTITLE0=??? - Party Doll
TTITLE1=??? - Rockhouse
TTITLE2=??? - Maybelline
TTITLE3=??? - Storm Clouds
TTITLE4=??? - Devil Woman
TTITLE5=??? - Somebody Touched Me
TTITLE6=??? - Hula Love
TTITLE7=??? - Rock Your Little Baby To Sleep
TTITLE8=??? - Lovey Dovey
TTITLE9=??? - Ling Ting Tong
TTITLE10=??? - I Think I'm Gonna Kill Myself
TTITLE11=??? - I Washed My Hands In Muddy Water
TTITLE12=??? - Travellin' Light
EXTD=(c)1986 Charly Records International\r\nLP Catalogue: TOP 142\r\nLP upc 
EXTD=0823330554104\r\n\r\nRecorded 1979 at Regent Sound Studio, 
EXTD=London.\r\nMusicians:\r\nBuddy Knox (vcl,rhy gtr) - Dave Travis (gtr) - 
EXTD=Eddie Jones (ld gtr) - Terry Nicholson (bs,pno) - Howard Tibble (dms) - Joe 
EXTD=Gillingham (pno,ARP)\r\nProduced by Dave Travis and Buddy Knox\r\n
EXTT0=Songwriter: Bowen/Knox/Alldred\r\n
EXTT1=Songwriter: Orbison/Jenkins\r\n
EXTT2=Songwriter: Berry/Fratto/Freed\r\n
EXTT3=Songwriter: J. Duncan\r\n
EXTT4=Songwriter: Knox\r\n
EXTT5=Songwriter: Ertegun\r\n
EXTT6=Songwriter: Bowen/Knox/Lanier/Alldred\r\n
EXTT7=Songwriter: Bowen/Knox/Lanier/Alldred\r\n
EXTT8=Songwriter: Curtis/Nuggy\r\n
EXTT9=Songwriter: Godwin\r\n
EXTT10=Songwriter: Knox\r\n
EXTT11=Songwriter: J. Babcock\r\n
EXTT12=Songwriter: Knox\r\n
PLAYORDER=
